<svg width="24" height="25" viewBox="0 0 24 25" fill="none" xmlns="http://www.w3.org/2000/svg">
<g id="Social media logo">
<path id="vector" d="M22.501 12.7331C22.501 11.8698 22.4296 11.2398 22.2748 10.5864H12.2153V14.483H18.12C18.001 15.4514 17.3582 16.9097 15.9296 17.8897L15.9096 18.0202L19.0902 20.4349L19.3106 20.4564C21.3343 18.6247 22.501 15.9297 22.501 12.7331Z" fill="#4285F4"/>
<path id="vector_2" d="M12.214 23.0001C15.1068 23.0001 17.5353 22.0667 19.3092 20.4567L15.9282 17.89C15.0235 18.5083 13.8092 18.94 12.214 18.94C9.38069 18.94 6.97596 17.1083 6.11874 14.5767L5.99309 14.5871L2.68583 17.0955L2.64258 17.2133C4.40446 20.6433 8.0235 23.0001 12.214 23.0001Z" fill="#34A853"/>
<path id="vector_3" d="M6.12046 14.5767C5.89428 13.9234 5.76337 13.2233 5.76337 12.5C5.76337 11.7767 5.89428 11.0767 6.10856 10.4234L6.10257 10.2842L2.75386 7.7356L2.64429 7.78667C1.91814 9.21002 1.50146 10.8084 1.50146 12.5C1.50146 14.1917 1.91814 15.79 2.64429 17.2133L6.12046 14.5767Z" fill="#FBBC05"/>
<path id="vector_4" d="M12.2141 6.05997C14.2259 6.05997 15.583 6.91163 16.3569 7.62335L19.3807 4.73C17.5236 3.03834 15.1069 2 12.2141 2C8.02353 2 4.40447 4.35665 2.64258 7.78662L6.10686 10.4233C6.97598 7.89166 9.38073 6.05997 12.2141 6.05997Z" fill="#EB4335"/>
</g>
</svg>
